<svg xmlns="http://www.w3.org/2000/svg" xmlns:xlink="http://www.w3.org/1999/xlink">

    <!-- 背景色 -->
    <rect x="0" y="0" width="910" height="550" fill="hsl(159, 91%, 25%)" />

    <!-- 配線 -->
    <path style="fill:none; stroke-width:5; stroke:hsl(152, 57%, 54%);" stroke-linejoin="round" d="
        M 300 -10,
        l 50 50,
        H 490,
        a 10 10 180 0 0 10 -10,
        a 10 10 180 0 1 20 0, v 20, a 10 10 180 0 0 20 0, v -20,
        a 10 10 180 0 1 20 0, v 20, a 10 10 180 0 0 20 0, v -20,
        a 10 10 180 0 1 20 0, v 20, a 10 10 180 0 0 20 0, v -20,
        a 10 10 180 0 1 20 0, v 20, a 10 10 180 0 0 20 0, v -20,
        a 10 10 180 0 1 20 0, v 20, a 10 10 180 0 0 20 0,
        a 10 10 180 0 1 10 -10,
        H 860,
        l 60 60" />
    <path style="fill:none; stroke-width:15; stroke:hsl(152, 57%, 54%);" stroke-linejoin="round" d="
        M 280 210,
        l 100 100,
        H 825,
        L 860 275" />
    <circle cx="860" cy="275" r="20" style="fill:#FFFFFF;" />
    <circle cx="860" cy="275" r="20" style="stroke:#fec002; stroke-width:10; fill:none;" />

    <!-- 名前テキスト -->
    <text x="350" y="200" fill="#FFFFFF" font-size="150">Kanade</text>
    <text x="410" y="270" fill="#FFFFFF" font-size="40">@kanade_k_1228</text>

    <!-- アイコン画像 -->
    <clipPath id="icon-clip">
        <circle cx="170" cy="170" r="150" />
    </clipPath>
    <image xlink:href="./img/avatar.png" x="20" y="20" height="300" width="300" clip-path="url(#icon-clip)" />
    <circle cx="170" cy="170" r="150" style="stroke:#fec002; stroke-width:20; fill:none;" />

    <!-- QR IC -->
    <image x="80" y="350" height="180" width="180" xlink:href="./img/github.png" />
    <image x="360" y="350" height="180" width="180" xlink:href="./img/niconico.png" />
    <image x="640" y="350" height="180" width="180" xlink:href="./img/twitter.png" />

    <g fill="hsl(120, 2%, 83%)">
        <rect x="70" y="370" width="10" height="20" />
        <rect x="70" y="410" width="10" height="20" />
        <rect x="70" y="450" width="10" height="20" />
        <rect x="70" y="490" width="10" height="20" />
        <rect x="260" y="370" width="10" height="20" />
        <rect x="260" y="410" width="10" height="20" />
        <rect x="260" y="450" width="10" height="20" />
        <rect x="260" y="490" width="10" height="20" />
        <rect x="350" y="370" width="10" height="20" />
        <rect x="350" y="410" width="10" height="20" />
        <rect x="350" y="450" width="10" height="20" />
        <rect x="350" y="490" width="10" height="20" />
        <rect x="540" y="370" width="10" height="20" />
        <rect x="540" y="410" width="10" height="20" />
        <rect x="540" y="450" width="10" height="20" />
        <rect x="540" y="490" width="10" height="20" />
        <rect x="630" y="370" width="10" height="20" />
        <rect x="630" y="410" width="10" height="20" />
        <rect x="630" y="450" width="10" height="20" />
        <rect x="630" y="490" width="10" height="20" />
        <rect x="820" y="370" width="10" height="20" />
        <rect x="820" y="410" width="10" height="20" />
        <rect x="820" y="450" width="10" height="20" />
        <rect x="820" y="490" width="10" height="20" />
    </g>

    <!-- IC 配線 -->
    <g style="fill:none; stroke-width:5; stroke:hsl(152, 57%, 54%);" stroke-linejoin="round">
        <path d="M 70 380, h -40, l -40 -40" />
        <path d="M 70 420, h -40, l -40 -40" />
        <path d="M 70 460, h -40, l -40 -40" />
        <path d="M 70 500, h -40, l -40 -40" />
        <!-- <path d="M 270 380, h 80" /> -->
        <path d="M 270 380,
                 c 40 0 60 -30 60 -40,
                 a 10 10 180 0 0 -20 0,
                 a 10 10 180 0 0 -20 0,
                 c 0 10 20 40 60 40" />
        <path d="M 270 420, h 80" />
        <path d="M 270 460, h 80" />
        <path d="M 270 500, h 80" />
        <path d="M 550 380, h 80" />
        <path d="M 550 420, h 80" />
        <path d="M 550 460, h 80" />
        <path d="M 550 500, h 80" />
        <path d="M 830 380, h 40, l 50 -50" />
        <path d="M 830 420, h 40, l 50 -50" />
        <path d="M 830 460, h 40, l 50 -50" />
        <path d="M 830 500, h 40, l 50 -50" />
    </g>
</svg>